<?xml version="1.0" standalone="no"?><!DOCTYPE svg PUBLIC "-//W3C//DTD SVG 1.1//EN" "http://www.w3.org/Graphics/SVG/1.1/DTD/svg11.dtd"><svg t="1707398514938" class="icon" viewBox="0 0 1024 1024" version="1.1" xmlns="http://www.w3.org/2000/svg" p-id="7018" xmlns:xlink="http://www.w3.org/1999/xlink" width="200" height="200"><path d="M347.860791 283.397078m-9.852001 0a8.1 8.1 0 1 0 19.704003 0 8.1 8.1 0 1 0-19.704003 0Z" p-id="7019"></path><path d="M420.555778 335.228202a8.1 8.1 0 1 0 12.088406-15.560251 8.1 8.1 0 1 0-12.088406 15.560251Z" p-id="7020"></path><path d="M415.365245 248.36774m-6.324742 0a5.2 5.2 0 1 0 12.649483 0 5.2 5.2 0 1 0-12.649483 0Z" p-id="7021"></path><path d="M287.045967 366.105238m-5.959853 0a4.9 4.9 0 1 0 11.919705 0 4.9 4.9 0 1 0-11.919705 0Z" p-id="7022"></path><path d="M368.294572 396.755909m-10.581779 0a8.7 8.7 0 1 0 21.163559 0 8.7 8.7 0 1 0-21.163559 0Z" p-id="7023"></path><path d="M514.979926 280.964485m-5.351704 0a4.4 4.4 0 1 0 10.703409 0 4.4 4.4 0 1 0-10.703409 0Z" p-id="7024"></path><path d="M750.454923 384.106426m-5.351704 0a4.4 4.4 0 1 0 10.703409 0 4.4 4.4 0 1 0-10.703409 0Z" p-id="7025"></path><path d="M675.044542 400.891317m-4.013778 0a3.3 3.3 0 1 0 8.027557 0 3.3 3.3 0 1 0-8.027557 0Z" p-id="7026"></path><path d="M493.694738 205.432474m-4.743556 0a3.9 3.9 0 1 0 9.487112 0 3.9 3.9 0 1 0-9.487112 0Z" p-id="7027"></path><path d="M545.265709 359.415608m-8.270816 0a6.8 6.8 0 1 0 16.541632 0 6.8 6.8 0 1 0-16.541632 0Z" p-id="7028"></path><path d="M589.295641 268.679891m-4.743556 0a3.9 3.9 0 1 0 9.487112 0 3.9 3.9 0 1 0-9.487112 0Z" p-id="7029"></path><path d="M639.285426 332.048937m-4.743556 0a3.9 3.9 0 1 0 9.487112 0 3.9 3.9 0 1 0-9.487112 0Z" p-id="7030"></path><path d="M178.673952 459.151918l669.571208 0c0 0 4.257038 228.906996-224.649958 305.168785L403.32391 764.320703C403.32391 764.320703 187.188027 734.643069 178.673952 459.151918z" p-id="7031"></path><path d="M626.027794 778.916261l-223.798551 0-0.973037-0.12163c-2.310963-0.364889-58.50386-8.392446-115.913054-52.057489-33.691412-25.663856-60.936453-58.260601-81.005345-96.938829-24.690818-47.922081-38.313339-105.088015-40.259413-170.159876l-0.486519-15.082076 699.005583 0 0.243259 14.352298c0 2.432593 0.729778 61.058083-27.60993 129.778834-16.663262 40.502673-40.137784 76.140159-69.572158 106.061052-36.732153 37.218672-83.073049 65.315121-137.441501 83.437938L626.027794 778.916261zM404.418577 749.725146l216.865661 0c48.773489-16.541632 90.249198-41.840599 123.210833-75.045492 26.758522-27.001782 48.043711-59.233638 63.490676-96.087421 18.366077-44.029932 23.717781-84.289346 25.177337-104.844756L193.999287 473.747476c3.284 54.368452 15.568595 102.290533 36.367265 142.549947 18.001188 34.786079 42.448747 64.098824 72.734529 87.086827C350.779903 739.629885 397.485687 748.508849 404.418577 749.725146z" p-id="7032"></path><path d="M625.298016 833.163084 394.566576 833.163084c-8.757335 0-15.811854-7.176149-15.811854-16.055113l0-39.408006c0-8.878964 7.05452-16.055113 15.811854-16.055113l230.731441 0c8.757335 0 15.811854 7.176149 15.811854 16.055113l0 39.408006C641.109871 825.865305 633.933721 833.163084 625.298016 833.163084zM407.945837 803.971968l203.851289 0 0-13.136002L407.945837 790.835966 407.945837 803.971968z" p-id="7033"></path><path d="M187.188027 378.268203" p-id="7034"></path><path d="M177.944174 416.703171" p-id="7035"></path><path d="M163.348616 416.824801c0-0.486519-0.12163-12.771113 1.824445-26.150374 3.284-22.014966 10.581779-35.150968 22.258225-40.137784 22.014966-9.365483 27.245041-17.14978 27.001782-39.894524l0-1.216296 0.243259-1.216296c0.364889-2.675852 0.729778-5.230075 0.973037-7.905927 1.702815-16.906521 3.52726-34.299561 38.678228-65.193491 13.136002-11.554816 28.218078-17.757928 45.611118-25.055707 22.258225-9.243853 47.435562-19.704003 77.356456-45.002969 6.568001-5.838223 58.990379-51.6926 96.57394-57.287564 29.799264-4.500297 63.490676-9.608742 120.413351 43.665043l0.243259 0.243259c1.824445 1.824445 3.52726 3.648889 5.108445 5.351704 9.000594 9.608742 16.784891 17.879558 47.922081 19.582373l1.094667 0.12163c2.189334 0.243259 53.152156 7.176149 104.601497 39.286376 48.16534 30.042523 105.574534 88.546383 105.574534 196.310251l-29.191115 0c0-75.410381-30.650671-132.941204-90.978976-171.011284-43.665043-27.60993-88.303124-34.907709-93.289939-35.637487-42.327117-2.554223-55.949638-17.028151-66.896306-28.826226-1.459556-1.581185-2.797482-3.040741-4.135408-4.378667-46.462525-43.421784-69.450529-39.894524-95.965792-35.880746-24.934078 3.770519-67.382825 37.583561-81.613493 50.354674l-0.243259 0.243259c-33.448153 28.339708-62.15275 40.259413-85.140753 49.746526-15.690224 6.446371-27.974819 11.676446-37.583561 20.068892-26.515263 23.352892-27.4883 32.961634-28.826226 46.219266-0.243259 2.675852-0.486519 5.351704-0.973037 8.270816 0.12163 33.326523-12.406224 51.81423-44.151562 65.55838-3.770519 4.013778-7.176149 22.866374-6.93289 39.408006L163.348616 416.824801zM199.715881 376.930277 199.715881 376.930277z" p-id="7036"></path><path d="M-643.299204 320.73738m-9.852001 0a8.1 8.1 0 1 0 19.704003 0 8.1 8.1 0 1 0-19.704003 0Z" p-id="7037"></path><path d="M-570.780835 372.588634a8.1 8.1 0 1 0 12.088406-15.560251 8.1 8.1 0 1 0-12.088406 15.560251Z" p-id="7038"></path><path d="M-575.91638 285.708041m-6.324742 0a5.2 5.2 0 1 0 12.649483 0 5.2 5.2 0 1 0-12.649483 0Z" p-id="7039"></path><path d="M-704.235657 403.567169m-5.959853 0a4.9 4.9 0 1 0 11.919705 0 4.9 4.9 0 1 0-11.919705 0Z" p-id="7040"></path><path d="M-622.987053 434.096211m-10.581779 0a8.7 8.7 0 1 0 21.163559 0 8.7 8.7 0 1 0-21.163559 0Z" p-id="7041"></path><path d="M-476.301699 318.304787m-5.351704 0a4.4 4.4 0 1 0 10.703409 0 4.4 4.4 0 1 0-10.703409 0Z" p-id="7042"></path><path d="M-240.826702 421.446728m-5.351704 0a4.4 4.4 0 1 0 10.703409 0 4.4 4.4 0 1 0-10.703409 0Z" p-id="7043"></path><path d="M-316.237083 438.231619m-4.013778 0a3.3 3.3 0 1 0 8.027557 0 3.3 3.3 0 1 0-8.027557 0Z" p-id="7044"></path><path d="M-497.586887 242.894406m-4.743556 0a3.9 3.9 0 1 0 9.487112 0 3.9 3.9 0 1 0-9.487112 0Z" p-id="7045"></path><path d="M-446.015916 396.755909m-8.270816 0a6.8 6.8 0 1 0 16.541632 0 6.8 6.8 0 1 0-16.541632 0Z" p-id="7046"></path><path d="M-401.864354 306.141822m-4.743556 0a3.9 3.9 0 1 0 9.487112 0 3.9 3.9 0 1 0-9.487112 0Z" p-id="7047"></path><path d="M-351.874569 369.389239m-4.743556 0a3.9 3.9 0 1 0 9.487112 0 3.9 3.9 0 1 0-9.487112 0Z" p-id="7048"></path><path d="M-812.607673 496.49222l669.571208 0c0 0 4.257038 228.906996-224.649958 305.168785l-220.392921 0C-587.957715 801.661005-804.093598 771.983371-812.607673 496.49222z" p-id="7049"></path><path d="M-365.983609 855.907828l-230.731441 0c-0.608148 0-1.216296-0.608148-1.216296-1.459556l0-39.408006c0-0.851408 0.486519-1.459556 1.216296-1.459556l230.731441 0c0.608148 0 1.216296 0.608148 1.216296 1.459556l0 39.408006C-364.767312 855.299679-365.253831 855.907828-365.983609 855.907828z" p-id="7050"></path><path d="M-804.093598 415.608505" p-id="7051"></path><path d="M-813.215821 454.043473" p-id="7052"></path><path d="M-813.215821 454.043473c0 0-0.486519-45.976007 15.325336-52.665637 26.515263-11.311557 36.245635-23.961041 35.880746-53.517045 3.040741-19.582373-1.702815-32.353486 34.786079-64.342083 27.001782-23.717781 68.234232-23.596152 122.845944-69.937047 0 0 54.490082-48.651859 89.154531-53.881934 28.461337-4.257038 56.679416-8.270816 108.250386 39.894524 12.284594 12.041335 19.825632 26.758522 62.517639 29.191115 0 0 197.404917 25.542226 197.404917 221.244328" p-id="7053"></path></svg>